<svg xmlns="http://www.w3.org/2000/svg" xmlns:xlink="http://www.w3.org/1999/xlink" width="32" height="32" version="1.1" viewBox="0 0 32 32"><title>52B911AC-36CE-4F60-BE7F-9CB869E58872</title><desc>Created with sketchtool.</desc><g id="Page-1" fill="none" fill-rule="evenodd" stroke="none" stroke-width="1"><g id="Icons" fill-rule="nonzero" transform="translate(-650.000000, -1501.000000)"><g id="micro-icon-ai" transform="translate(650.000000, 1501.000000)"><path id="Shape" fill="#DEDEDE" d="M27.8109091,20.0847059 C27.6876386,19.9505695 27.5112501,19.8738655 27.3260606,19.8738655 C27.1408711,19.8738655 26.9644826,19.9505695 26.8412121,20.0847059 L24.6206061,22.24 L16.0484848,22.24 L16.0484848,19.0964706 L19.6751515,19.0964706 C19.9280207,19.1263989 20.1760329,19.0122775 20.3122207,18.8033269 C20.4484085,18.5943762 20.4484085,18.3279767 20.3122207,18.1190261 C20.1760329,17.9100755 19.9280207,17.7959541 19.6751515,17.8258824 L16.0484848,17.8258824 L16.0484848,14.5976471 L19.6945455,14.5976471 L22.1090909,12.2352941 L24.3006061,12.2352941 C24.6647793,12.2352941 24.96,11.9487563 24.96,11.5952941 C24.96,11.2418319 24.6647793,10.9552941 24.3006061,10.9552941 L21.5563636,10.9552941 L19.1418182,13.2988235 L16.0484848,13.2988235 L16.0484848,6.10823529 L21.5175758,6.10823529 C21.7531545,6.1082353 21.9708383,5.98625199 22.0886277,5.7882353 C22.2064171,5.59021861 22.2064171,5.34625198 22.0886277,5.14823529 C21.9708383,4.9502186 21.7531545,4.82823529 21.5175758,4.82823529 L15.9806061,4.82823529 C15.8949182,2.36439559 13.7675924,0.43447954 11.2290909,0.517647125 C8.6905894,0.60081471 6.70219101,2.66557206 6.78787879,5.12941176 C6.75254549,5.1239549 6.71654542,5.1239549 6.68121212,5.12941176 C5.04052187,5.1263145 3.52145338,5.96876954 2.69115938,7.3422416 C1.86086538,8.71571365 1.84415712,10.41374 2.64727273,11.8023529 C1.40983271,12.7618319 0.765652392,14.2701023 0.940772401,15.7979173 C1.11589241,17.3257323 2.08585475,18.659711 3.51030303,19.3317647 C2.62497594,20.5345327 2.37336501,22.0711576 2.83088621,23.481063 C3.28840741,24.8909685 4.40188584,26.0102896 5.83757576,26.5035294 C6.00238774,28.8320756 7.82643194,30.729634 10.2083662,31.0504753 C12.5903004,31.3713165 14.8778019,30.0275742 15.689697,27.8305882 L22.4,27.8305882 C22.6528692,27.8605165 22.9008814,27.7463951 23.0370692,27.5374445 C23.173257,27.3284939 23.173257,27.0620943 23.0370692,26.8531437 C22.9008814,26.6441931 22.6528692,26.5300717 22.4,26.56 L16.009697,26.56 C16.009697,26.4282353 16.009697,26.2964706 16.009697,26.1647059 L16.009697,23.5294118 L25.2121212,23.5294118 L27.8206061,20.9976471 C27.9480013,20.8773554 28.0190599,20.7116593 28.0172623,20.5391605 C28.0153955,20.3666618 27.9408324,20.2024228 27.8109091,20.0847059 Z M10.9478788,29.7882353 C8.87644998,29.7832576 7.1925432,28.1656404 7.16606061,26.1552941 L7.16606061,26.1552941 C7.18054266,26.074331 7.18054266,25.9915513 7.16606061,25.9105882 C7.2741656,23.9697814 8.92594681,22.4492211 10.9284848,22.4470588 C11.2926581,22.4470588 11.5878788,22.1605211 11.5878788,21.8070588 C11.5878788,21.4535966 11.2926581,21.1670588 10.9284848,21.1670588 C8.512744,21.170685 6.42960959,22.8156592 5.93454545,25.1105882 C4.43930834,24.3955578 3.65081361,22.7731521 4.03323847,21.1984615 C4.41566332,19.6237709 5.86769717,18.5139567 7.53454545,18.5223529 C7.89871867,18.5223529 8.19393939,18.2358152 8.19393939,17.8823529 C8.19393939,17.5288907 7.89871867,17.2423529 7.53454545,17.2423529 C6.43307365,17.2469239 5.36603373,17.6153786 4.50909091,18.2870588 C3.16659338,17.8522148 2.26330223,16.630115 2.26906325,15.2564706 C2.26971181,14.3033942 2.70673122,13.3998863 3.46181818,12.7905882 C3.75069918,13.0699689 4.07683062,13.3105388 4.43151515,13.5058824 C4.5292512,13.5584878 4.6398093,13.5845015 4.75151515,13.5811765 C4.98857046,13.5856038 5.20872306,13.4624676 5.32363636,13.2611765 C5.41132847,13.1139593 5.43505129,12.9389218 5.38956831,12.7747015 C5.34408533,12.6104812 5.23313639,12.470581 5.08121212,12.3858824 C3.77005222,11.6680021 3.1239618,10.1811616 3.50943067,8.76875967 C3.89489953,7.35635775 5.21462377,6.37492701 6.72,6.38117647 C6.77481464,6.38646073 6.83003385,6.38646073 6.88484848,6.38117647 C7.00601093,7.20036734 7.38538328,7.96309704 7.97090909,8.56470588 C8.23868352,8.80901067 8.65980719,8.79636929 8.91151515,8.53647059 C9.16322311,8.27657188 9.15019867,7.8678342 8.88242424,7.62352941 C8.36456439,6.99796182 8.09300659,6.21392209 8.11636364,5.41176471 C8.11636364,3.63925553 9.59680873,2.20235294 11.4230303,2.20235294 C13.2492519,2.20235294 14.729697,3.63925553 14.729697,5.41176471 L14.729697,26.1176471 C14.7243676,28.1427105 13.0343078,29.7830627 10.9478788,29.7882353 Z"/><path id="Shape" fill="url(#paint2)" d="M23.68,8.15060458 C22.5417289,8.15439789 21.5133552,7.49181891 21.0750353,6.47221512 C20.6367153,5.45261133 20.8749091,4.27710231 21.6784017,3.49454331 C22.4818944,2.71198432 23.6921949,2.47673721 24.7442035,2.89864089 C25.7962122,3.32054456 26.4824242,4.31637739 26.4824242,5.42117647 C26.4824242,6.92492108 25.2293034,8.14540291 23.68,8.15060458 Z M23.68,3.96235294 C22.8458948,3.97274914 22.1778827,4.63653944 22.1867831,5.44613278 C22.1956834,6.25572612 22.8781367,6.90553039 23.7122805,6.89864946 C24.5464244,6.89176852 25.2173997,6.23079969 25.2121212,5.42117647 C25.2121968,5.02933028 25.0498552,4.65392883 24.7616589,4.37952002 C24.4734626,4.10511121 24.0836447,3.95476881 23.68,3.96235294 L23.68,3.96235294 Z"/><path id="Shape" fill="url(#paint2)" d="M24.5915152,29.8164706 C23.0384235,29.8164706 21.7793939,28.5944713 21.7793939,27.0870588 C21.7793939,25.5796463 23.0384235,24.3576471 24.5915152,24.3576471 C26.1446068,24.3576471 27.4036364,25.5796463 27.4036364,27.0870588 C27.4036364,28.5944713 26.1446068,29.8164706 24.5915152,29.8164706 Z M24.5915152,25.6282353 C23.9787944,25.6282353 23.4265955,25.9869985 23.1930337,26.5367968 C22.9594718,27.086595 23.0906816,27.7188408 23.5253315,28.1380026 C23.9599813,28.5571644 24.6122164,28.6804466 25.1771615,28.4502232 C25.7421067,28.2199999 26.1081701,27.6817462 26.1042424,27.0870588 C26.0989111,26.2798528 25.4231991,25.6282353 24.5915152,25.6282353 L24.5915152,25.6282353 Z"/><path id="Shape" fill="url(#paint2)" d="M21.8375758,21.1388235 C20.7001789,21.1388235 19.6747775,20.4738237 19.2395145,19.4539124 C18.8042516,18.4340012 19.0448447,17.2600325 19.8491058,16.4794262 C20.6533668,15.6988199 21.8629103,15.465303 22.913728,15.8877641 C23.9645456,16.3102252 24.649697,17.3054678 24.649697,18.4094118 C24.649697,19.9168243 23.3906674,21.1388235 21.8375758,21.1388235 Z M21.8375758,16.9505882 C21.224855,16.9506005 20.6726561,17.3093514 20.4390943,17.8591497 C20.2055324,18.408948 20.3367422,19.0411937 20.7713921,19.4603555 C21.206042,19.8795173 21.858277,20.0027995 22.4232221,19.7725762 C22.9881673,19.5423528 23.3542307,19.0040991 23.350303,18.4094118 C23.352905,18.0192428 23.1943645,17.6443223 22.9101071,17.3684254 C22.6258497,17.0925286 22.239568,16.938651 21.8375758,16.9411765 L21.8375758,16.9505882 Z"/><path id="Path" fill="#000000" d="M12.6739394,24.4705882 C12.3174622,24.4369251 11.9968907,24.6816908 11.9466667,25.0258824 C11.9466667,25.1105882 11.6945455,26.9552941 10.0072727,26.9552941 C9.64309951,26.9552941 9.34787879,27.2418319 9.34787879,27.5952941 C9.34787879,27.9487564 9.64309951,28.2352941 10.0072727,28.2352941 C11.7271936,28.1620169 13.1145405,26.8438653 13.2266667,25.1764706 C13.26737,24.835357 13.0234561,24.5238571 12.6739394,24.4705882 L12.6739394,24.4705882 Z"/><path id="Path" fill="#000000" d="M12.6545455,7.77411765 L12.7321212,7.77411765 C13.0643324,7.77161385 13.3427434,7.52962362 13.3818182,7.20941176 C13.4036683,7.0419486 13.3554309,6.87297392 13.2479015,6.74030425 C13.140372,6.60763459 12.9825288,6.5223472 12.809697,6.50352941 C12.7224242,6.50352941 10.8024242,6.24941176 10.8024242,4.62117647 C10.8332594,4.37574458 10.7156798,4.13502684 10.5003974,4.00284457 C10.2851149,3.8706623 10.0106427,3.8706623 9.7953602,4.00284457 C9.58007774,4.13502684 9.46249813,4.37574458 9.49333333,4.62117647 C9.55920675,6.30301456 10.9241784,7.66441496 12.6545455,7.77411765 Z"/><path id="Path" fill="#000000" d="M10.88,17.0729412 C10.8713415,17.7295969 10.6001366,18.357295 10.1236364,18.8235294 C9.99082242,18.9461205 9.91563611,19.1162251 9.91563611,19.2941176 C9.91563611,19.4720102 9.99082242,19.6421148 10.1236364,19.7647059 C10.2486802,19.8823225 10.4149968,19.9495829 10.5890909,19.9529412 C10.7646971,19.9569567 10.9338315,19.8885568 11.0545455,19.7647059 C12.2596871,18.5967862 12.5389534,16.8024939 11.7430303,15.3411765 C12.3215011,14.8922047 12.7306459,14.2700641 12.9066667,13.5717647 C13.0667478,12.5832082 12.7524323,11.5778609 12.0533333,10.8423529 C11.9462894,10.7086963 11.7883718,10.6224269 11.6151116,10.6029553 C11.4418513,10.5834836 11.2678009,10.6324451 11.1321212,10.7388235 C10.992083,10.8411251 10.9013999,10.9946935 10.8812399,11.1636811 C10.86108,11.3326688 10.9132076,11.5022868 11.0254545,11.6329412 C11.4696404,12.0751986 11.6927638,12.6836318 11.6363636,13.2988235 C11.5323126,13.6962888 11.297373,14.0498998 10.9672727,14.3058824 C9.85034081,13.2736046 8.20941528,12.981678 6.78787879,13.5623529 C6.45363095,13.7005477 6.29752662,14.0751216 6.43878788,14.4 C6.50506719,14.5575238 6.63412154,14.6823652 6.79663906,14.7461692 C6.95915658,14.8099732 7.14134282,14.807324 7.30181818,14.7388235 C7.60885315,14.6127368 7.93816021,14.5456163 8.27151515,14.5411765 C9.70993314,14.5463377 10.8746823,15.6768296 10.88,17.0729412 L10.88,17.0729412 Z"/><path id="Shape" fill="url(#paint2)" d="M26.4630303,14.2964706 C24.9099386,14.2964706 23.6509091,13.0744713 23.6509091,11.5670588 C23.6509091,10.0596463 24.9099386,8.83764706 26.4630303,8.83764706 C28.016122,8.83764706 29.2751515,10.0596463 29.2751515,11.5670588 C29.2751515,12.2909438 28.9788753,12.9851804 28.4515003,13.4970444 C27.9241253,14.0089084 27.2088512,14.2964706 26.4630303,14.2964706 L26.4630303,14.2964706 Z M26.4630303,10.0988235 C25.6275741,10.0988235 24.950303,10.7561749 24.950303,11.5670588 C24.950303,12.3779428 25.6275741,13.0352941 26.4630303,13.0352941 C27.2984865,13.0352941 27.9757576,12.3779428 27.9757576,11.5670588 C27.9757576,10.7561749 27.2984865,10.0988235 26.4630303,10.0988235 Z"/><path id="Shape" fill="url(#paint2)" d="M29.1878788,21.1105882 C27.6347871,21.1105882 26.3757576,19.888589 26.3757576,18.3811765 C26.3757576,16.873764 27.6347871,15.6517647 29.1878788,15.6517647 C30.7409704,15.6517647 32,16.873764 32,18.3811765 C32,19.888589 30.7409704,21.1105882 29.1878788,21.1105882 Z M29.1878788,16.9223529 C28.575158,16.9223529 28.0229592,17.2811161 27.7893973,17.8309144 C27.5558354,18.3807127 27.6870452,19.0129584 28.1216951,19.4321202 C28.556345,19.8512821 29.20858,19.9745642 29.7735252,19.7443409 C30.3384703,19.5141175 30.7045338,18.9758638 30.7006061,18.3811765 C30.6899608,17.5791709 30.0142385,16.9359353 29.1878788,16.9411765 L29.1878788,16.9223529 Z"/></g></g></g><defs><linearGradient id="paint2" gradientUnits="userSpaceOnUse">
                <stop stop-color="#7B3CA8"/>
                <stop offset="0" stop-color="#D93962"/>
                </linearGradient></defs></svg>